<svg width="662.7699951171875px" height="252.81501464843748px" xmlns="http://www.w3.org/2000/svg" viewBox="-81.38499755859374 -51.40750732421874 662.7699951171875 252.81501464843748" style="background: none;" preserveAspectRatio="xMidYMid"><defs><filter id="editing-extrusion" x="-100%" y="-100%" width="300%" height="300%"><feFlood result="color1" flood-color="#edb870"></feFlood><feConvolveMatrix order="8,8" divisor="1" kernelMatrix="1 0 0 0 0 0 0 0 0 1 0 0 0 0 0 0 0 0 1 0 0 0 0 0 0 0 0 1 0 0 0 0 0 0 0 0 1 0 0 0 0 0 0 0 0 1 0 0 0 0 0 0 0 0 1 0 0 0 0 0 0 0 0 1" in="SourceAlpha" result="extrude"></feConvolveMatrix><feComposite in="color1" in2="extrude" result="comp-extrude" operator="in"></feComposite><feOffset dx="4" dy="4" in="comp-extrude" result="offset-extrude"></feOffset><feMerge><feMergeNode in="offset-extrude"></feMergeNode><feMergeNode in="SourceGraphic"></feMergeNode></feMerge></filter></defs><g filter="url(#editing-extrusion)"><g transform="translate(15.390004277229309, 129.38999938964844)"><path d="M32.93 0L0.88 0L19.55-97.02L51.89-97.02L32.93 0ZM57.48-14.70L57.48-14.70L57.48-14.70Q57.48-18.67 59.53-28.66L59.53-28.66L67.33-68.35L58.65-68.35L59.24-72.77L59.24-72.77Q76.88-78.06 93.93-90.99L93.93-90.99L100.99-90.99L97.46-74.97L108.93-74.97L107.60-68.35L96.28-68.35L88.79-28.66L88.79-28.66Q86.88-19.55 86.88-16.46L86.88-16.46L86.88-16.46Q86.88-9.41 93.05-7.94L93.05-7.94L93.05-7.94Q91.58-2.94 86.29 0L86.29 0L86.29 0Q81.00 2.94 73.50 2.94L73.50 2.94L73.50 2.94Q66.00 2.94 61.74-1.76L61.74-1.76L61.74-1.76Q57.48-6.47 57.48-14.70ZM106.72-0.73L106.72-0.73L125.24-97.02L125.24-97.02Q142.59-98.49 153.76-98.49L153.76-98.49L153.76-98.49Q164.93-98.49 172.14-97.53L172.14-97.53L172.14-97.53Q179.34-96.58 184.19-94.08L184.19-94.08L184.19-94.08Q193.89-89.38 193.89-76.44L193.89-76.44L193.89-76.44Q193.89-68.94 187.43-62.62L187.43-62.62L187.43-62.62Q181.40-56.89 174.78-55.57L174.78-55.57L174.78-55.57Q181.84-54.39 186.84-49.10L186.84-49.10L186.84-49.10Q192.13-43.51 192.13-34.84L192.13-34.84L192.13-34.84Q192.13-18.08 179.63-8.31L179.63-8.31L179.63-8.31Q167.14 1.47 142.59 1.47L142.59 1.47L142.59 1.47Q125.69 1.47 106.72-0.73ZM146.71-47.33L139.36-9.26L139.36-9.26Q140.68-9.11 140.97-9.11L140.97-9.11L142.30-9.11L142.30-9.11Q154.35-9.11 159.50-17.05L159.50-17.05L159.50-17.05Q163.32-23.23 163.32-34.54L163.32-34.54L163.32-34.54Q163.32-40.57 159.42-43.81L159.42-43.81L159.42-43.81Q155.53-47.04 146.71-47.33L146.71-47.33ZM169.05-76.29L169.05-76.29L169.05-76.29Q169.05-88.49 157.29-88.49L157.29-88.49L155.97-88.49L155.97-88.49Q155.38-88.49 154.50-88.35L154.50-88.35L148.62-57.33L150.09-57.33L150.09-57.33Q169.05-57.77 169.05-76.29ZM208.23-4.41L208.23-4.41L208.23-4.41Q204.77-8.23 203.23-14.26L203.23-14.26L203.23-14.26Q201.68-20.29 201.68-30.13L201.68-30.13L201.68-30.13Q201.68-39.98 205.06-48.95L205.06-48.95L205.06-48.95Q208.45-57.92 214.62-64.39L214.62-64.39L214.62-64.39Q227.26-77.91 248.14-77.91L248.14-77.91L248.14-77.91Q255.63-77.91 261.07-75.41L261.07-75.41L286.21-77.91L275.33-20.58L275.33-20.58Q274.89-18.82 274.89-15.58L274.89-15.58L274.89-15.58Q274.89-12.35 276.87-10.29L276.87-10.29L276.87-10.29Q278.86-8.23 281.80-7.94L281.80-7.94L281.80-7.94Q280.33-2.94 274.96 0L274.96 0L274.96 0Q269.60 2.94 263.57 2.94L263.57 2.94L263.57 2.94Q257.54 2.94 253.50 0.66L253.50 0.66L253.50 0.66Q249.46-1.62 248.28-5.44L248.28-5.44L248.28-5.44Q245.93-1.76 240.93 0.59L240.93 0.59L240.93 0.59Q235.94 2.94 229.25 2.94L229.25 2.94L229.25 2.94Q222.56 2.94 217.12 1.18L217.12 1.18L217.12 1.18Q211.68-0.59 208.23-4.41ZM239.24-64.09L239.24-64.09L239.24-64.09Q237.55-61.45 236.08-56.96L236.08-56.96L236.08-56.96Q234.61-52.48 232.19-40.50L232.19-40.50L232.19-40.50Q229.76-28.52 229.76-19.99L229.76-19.99L229.76-19.99Q229.76-11.47 231.08-8.97L231.08-8.97L231.08-8.97Q232.41-6.47 234.76-6.47L234.76-6.47L234.76-6.47Q239.46-6.47 242.92-10.95L242.92-10.95L242.92-10.95Q246.37-15.43 247.69-23.37L247.69-23.37L255.49-66.44L255.49-66.44Q252.40-69.09 248.80-69.09L248.80-69.09L248.80-69.09Q245.20-69.09 243.06-67.91L243.06-67.91L243.06-67.91Q240.93-66.74 239.24-64.09ZM356.33 2.94L356.33 2.94L356.33 2.94Q338.54 2.94 338.54-10.88L338.54-10.88L338.54-10.88Q338.69-14.70 339.86-21.17L339.86-21.17L342.51-34.69L342.51-34.69Q346.48-53.80 346.48-58.06L346.48-58.06L346.48-58.06Q346.48-66.59 341.48-66.59L341.48-66.59L341.48-66.59Q333.10-66.59 328.69-44.69L328.69-44.69L320.02 0L290.47 2.94L305.76-75.12L329.87-77.91L327.52-63.50L327.52-63.50Q334.42-77.91 355.59-77.91L355.59-77.91L355.59-77.91Q365.88-77.91 370.22-73.57L370.22-73.57L370.22-73.57Q374.56-69.24 374.56-59.53L374.56-59.53L374.56-59.53Q374.56-50.42 369.85-29.11L369.85-29.11L369.85-29.11Q367.65-19.55 367.65-15.95L367.65-15.95L367.65-15.95Q367.65-12.35 369.63-10.29L369.63-10.29L369.63-10.29Q371.62-8.23 374.56-7.94L374.56-7.94L374.56-7.94Q373.09-2.94 368.01 0L368.01 0L368.01 0Q362.94 2.94 356.33 2.94ZM424.24-69.68L424.24-69.68L424.24-69.68Q432.18-77.91 448.94-77.91L448.94-77.91L448.94-77.91Q458.20-77.91 463.27-72.99L463.27-72.99L463.27-72.99Q468.34-68.06 468.34-59.02L468.34-59.02L468.34-59.02Q468.34-49.98 463.27-43.59L463.27-43.59L463.27-43.59Q458.20-37.19 448.79-34.54L448.79-34.54L448.79-34.54Q449.53-31.60 450.55-28.52L450.55-28.52L452.61-22.64L452.61-22.64Q455.41-15.14 457.61-12.49L457.61-12.49L457.61-12.49Q459.82-9.85 462.76-8.97L462.76-8.97L462.76-8.97Q461.14-2.94 455.26 0.29L455.26 0.29L455.26 0.29Q450.55 2.94 444.09 2.94L444.09 2.94L444.09 2.94Q425.12 2.94 422.62-26.31L422.62-26.31L422.62-26.31Q422.18-30.43 422.18-34.54L422.18-34.54L422.18-34.54Q429.53-36.60 434.68-43.51L434.68-43.51L434.68-43.51Q439.82-50.42 439.82-58.51L439.82-58.51L439.82-58.51Q439.82-66.59 434.09-66.59L434.09-66.59L434.09-66.59Q429.97-66.59 426.74-62.03L426.74-62.03L426.74-62.03Q423.51-57.48 422.04-49.69L422.04-49.69L412.33 0L382.64 2.94L403.22-102.90L432.77-105.84L429.39-88.35L429.39-88.35Q427.18-76.00 424.24-69.68Z" fill="#393e46"></path></g></g><style>text {
  font-size: 64px;
  font-family: Arial Black;
  dominant-baseline: central;
  text-anchor: middle;
}</style></svg>