<?xml version="1.0" encoding="UTF-8"?>
<svg width="86px" height="97px" viewBox="0 0 86 97" version="1.1" xmlns="http://www.w3.org/2000/svg" xmlns:xlink="http://www.w3.org/1999/xlink">
    <!-- Generator: sketchtool 64 (101010) - https://sketch.com -->
    <title>588A3804-6BDA-4E37-BD73-A34AB130C34C</title>
    <desc>Created with sketchtool.</desc>
    <defs>
        <linearGradient x1="50%" y1="103.882117%" x2="50%" y2="-3.39289345%" id="linearGradient-1">
            <stop stop-color="#FF4B6E" offset="0%"></stop>
            <stop stop-color="#FF964D" offset="100%"></stop>
        </linearGradient>
    </defs>
    <g id="diseño-alta-Home---responsive" stroke="none" stroke-width="1" fill="none" fill-rule="evenodd">
        <g id="01.-Home-|-Nav-medium-+-Top-notification" transform="translate(-674.000000, -1045.000000)">
            <g id="icon_seguridad" transform="translate(674.000000, 1045.000000)">
                <g id="seguridad-icon">
                    <path d="M44.349522,95.6793265 C44.4420786,95.6327076 44.6080064,95.5474704 44.8424503,95.4245303 C45.2247087,95.2240777 45.6657035,94.9877853 46.1605854,94.7165605 C47.5655194,93.9465729 49.1272615,93.0479928 50.8071032,92.0279376 C55.6049512,89.1145262 60.4032587,85.8033308 64.8943546,82.1460528 C78.0280287,71.4507796 86,60.0057375 86,48 L86,15.246566 L84.4487201,14.3910817 C67.0977101,4.82252106 53.3368666,0 43,0 C32.3568779,0 18.5814836,4.82762041 1.53109871,14.4023126 L0,15.2621054 L0,48 C0,60.0057375 7.97197128,71.4507796 21.1056454,82.1460528 C25.5967413,85.8033308 30.3950488,89.1145262 35.1928968,92.0279376 C36.8727385,93.0479928 38.4344806,93.9465729 39.8394146,94.7165605 C40.3342965,94.9877853 40.7752913,95.2240777 41.1575497,95.4245303 C41.3919936,95.5474704 41.5579214,95.6327076 41.650478,95.6793265 L43,96.3590531 L44.349522,95.6793265 Z M42.7230854,89.4549597 C41.3936444,88.7263469 39.9085115,87.8718454 38.3071032,86.8994175 C33.7299512,84.1200199 29.1532587,80.9617557 24.8943546,77.4935608 C13.0280287,67.8303396 6,57.7404783 6,48 L6,18.7822593 C21.5150389,10.2363727 33.8915701,6 43,6 C51.8172157,6 64.2008772,10.242617 80,18.7973349 L80,48 C80,57.7404783 72.9719713,67.8303396 61.1056454,77.4935608 C56.8467413,80.9617557 52.2700488,84.1200199 47.6928968,86.8994175 C46.0914885,87.8718454 44.6063556,88.7263469 43.2769146,89.4549597 C43.1823545,89.5067843 43.0900356,89.5571711 43,89.6061118 C42.9099644,89.5571711 42.8176455,89.5067843 42.7230854,89.4549597 Z" id="seguridad" fill="url(#linearGradient-1)" fill-rule="nonzero"></path>
                    <path d="M52,41 L52,37.4796057 C52,31.6918793 47.9705627,27 43,27 C38.0294373,27 34,31.6918793 34,37.4796057 L34,41" id="Oval" stroke="#6F1DF9" stroke-width="3" stroke-linecap="round"></path>
                    <path d="M43,41.4643031 C39.5167531,41.4643031 36.0335305,41.7829857 32.5502958,42.4199451 C31.9565112,42.5285271 31.4439367,42.8415173 31.0798086,43.2782698 C30.7156809,43.7150218 30.4999993,44.275536 30.5,44.8791663 L30.5,59.0854788 C30.5,59.6923938 30.7179787,60.2554605 31.0853974,60.6930519 C31.4528173,61.1306447 31.9696781,61.4427614 32.567441,61.5477744 C36.0449566,62.1586777 39.5224683,62.4643031 43,62.4643031 C46.477529,62.4643031 49.9550381,62.1586782 53.4325571,61.5477747 C54.0303206,61.4427643 54.5471819,61.1306488 54.914602,60.6930566 C55.2820217,60.2554647 55.5000006,59.6923964 55.5,59.0854797 L55.5,44.8791662 C55.5,44.2755362 55.2843182,43.7150225 54.9201906,43.2782706 C54.5560626,42.8415182 54.0434885,42.5285278 53.4497044,42.4199451 C49.9664708,41.7829858 46.4832475,41.4643031 43,41.4643031 Z" id="Rectangle" stroke="#6F1DF9" stroke-width="3"></path>
                    <path d="M43,48 C42.4477153,48 41.9477153,48.2238576 41.5857864,48.5857864 C41.2238576,48.9477153 41,49.4477153 41,50 C41,50.9322501 41.6379662,51.7151966 42.5003368,51.937587 L43.5,56.5 L43.5008437,51.9372827 C44.3626149,51.7144819 45,50.9318249 45,50 C45,49.4477153 44.7761424,48.9477153 44.4142136,48.5857864 C44.0522847,48.2238576 43.5522847,48 43,48 Z" id="Combined-Shape" stroke="#6F1DF9" stroke-width="2" fill="#6F1DF9"></path>
                </g>
            </g>
        </g>
    </g>
</svg>